<?xml version="1.0" encoding="utf-8"?>
<!-- Generator: Adobe Illustrator 23.0.3, SVG Export Plug-In . SVG Version: 6.00 Build 0)  -->
<svg version="1.1" id="Layer_1" xmlns="http://www.w3.org/2000/svg" xmlns:xlink="http://www.w3.org/1999/xlink" x="0px" y="0px"
	 viewBox="0 0 512 512" style="enable-background:new 0 0 512 512;" xml:space="preserve">
<style type="text/css">
	.st0{fill:#FFFFFF;}
</style>
<g>
	<path d="M253.69,467.6c-28.76,0.51-63.99-2.35-98.87-9.6c-14.94-3.1-26.25-10.67-33.78-24.07C87.93,374.91,63.2,312.8,51.53,245.88
		c-1.25-7.18-2.29-14.43-2.72-21.7c-0.73-12.32,3.3-23.23,12-31.98c51.32-51.6,108.72-94.59,175.59-124.34
		c16.03-7.13,31.12-7.72,47.37-0.61c57.47,25.14,107.92,60.64,154.06,102.67c7.32,6.67,14.45,13.55,21.45,20.56
		c11.05,11.05,15.32,24.33,13.17,39.92c-10.06,73.04-36.3,140.31-72.33,204.13c-6.69,11.85-17.01,18.98-30.18,21.53
		C333.81,463.05,297.35,467.24,253.69,467.6z M249.05,460.55c43.07-0.21,80.34-4.18,117.33-10.99c13.16-2.42,22.72-9.39,29.24-21.19
		c17.17-31.06,32.24-63.06,44.19-96.5c11.95-33.45,21.12-67.6,25.61-102.92c1.73-13.61-2.15-25.18-12.3-34.61
		c-7.44-6.92-14.58-14.18-22.11-20.99c-45.13-40.82-94.42-75.31-150.48-99.71c-13.35-5.81-25.86-5.91-39.16-0.1
		c-66.88,29.22-124.12,72.05-175.3,123.48c-8.61,8.65-11.52,19.54-9.86,31.67c9.96,72.81,36.14,139.86,72.15,203.43
		c5.43,9.59,13.67,15.45,24.42,17.94C186.24,457.83,220.24,460.27,249.05,460.55z"/>
	<path d="M255.83,419.98c-23.25-0.09-46.33-2.03-69.25-6.05c-16.54-2.9-28.5-11.37-36.52-26.32
		c-23.8-44.38-41.82-90.73-50.15-140.63c-2.99-17.87,1.37-32.67,14.65-45.36c37.21-35.55,78.03-65.76,125.16-87.03
		c14.23-6.42,27.91-6.44,42.2,0.01c48.64,21.93,90.76,53.04,128.4,90.46c10.43,10.37,14.14,23.31,11.94,38.02
		c-7.86,52.48-26.76,101.02-52.29,147.19c-6.85,12.39-17.83,19.43-31.69,21.93C311.02,417.12,283.54,419.73,255.83,419.98z
		 M262.4,412.59c25.6-0.41,50.96-3.07,76.11-7.84c11.15-2.12,19.82-8.09,25.27-17.95c24.75-44.75,42.98-91.89,51.21-142.59
		c2.18-13.46-0.65-25.45-10.6-35.17c-36.41-35.59-76.8-65.49-123.19-87.04c-13.8-6.41-26.7-6.49-40.49-0.09
		c-46.65,21.64-87.3,51.65-123.78,87.58c-8.92,8.79-12.36,19.69-10.5,32.15c7.81,52.18,26.61,100.47,52.17,146.31
		c5.82,10.43,15.14,16.06,26.78,18.35C210.83,411.3,236.51,413.1,262.4,412.59z"/>
	<path d="M258.46,335.69c-10.98,0.19-21.82-1.13-32.59-3.13c-6.82-1.27-11.78-4.83-15.17-11.02c-11.21-20.47-19.5-41.93-23.32-65.05
		c-1.34-8.08,0.54-14.55,6.61-20.42c16.79-16.25,35.35-29.8,56.63-39.63c7.21-3.33,13.92-3.11,20.97,0.17
		c21.74,10.12,40.72,24.07,57.62,40.95c4.51,4.5,6.21,9.94,5.32,16.39c-3.37,24.6-12.17,47.25-24.3,68.74
		c-3.18,5.63-8.24,8.42-14.49,9.44C283.39,334.14,271,335.72,258.46,335.69z M260.79,214.94c-29.06,0.04-51.76,22.74-52.04,52.14
		c-0.03,3.32-1.6,7.36,4.79,7.32c5.93-0.04,4.37-3.77,4.46-6.81c0.54-18.72,8.98-32.52,26.24-39.93
		c28.82-12.38,58.28,8.02,59.5,40.87c0.12,3.26-0.36,5.92,4.64,5.88c4.82-0.04,4.75-2.44,4.8-5.85
		C313.63,238.8,290.31,214.9,260.79,214.94z"/>
	<path class="st0" d="M260.79,214.94c29.53-0.04,52.85,23.87,52.38,53.61c-0.05,3.41,0.02,5.81-4.8,5.85
		c-5,0.04-4.52-2.62-4.64-5.88c-1.22-32.85-30.68-53.25-59.5-40.87c-17.26,7.42-25.69,21.21-26.24,39.93
		c-0.09,3.05,1.47,6.77-4.46,6.81c-6.38,0.05-4.82-4-4.79-7.32C209.03,237.67,231.72,214.98,260.79,214.94z"/>
</g>
<g>
</g>
<g>
</g>
<g>
</g>
<g>
</g>
<g>
</g>
<g>
</g>
<g>
</g>
<g>
</g>
<g>
</g>
<g>
</g>
<g>
</g>
<g>
</g>
<g>
</g>
<g>
</g>
<g>
</g>
</svg>
