<?xml version="1.0" encoding="utf-8"?>
<!-- Generator: Adobe Illustrator 23.0.3, SVG Export Plug-In . SVG Version: 6.00 Build 0)  -->
<svg version="1.1" id="Layer_1" xmlns="http://www.w3.org/2000/svg" xmlns:xlink="http://www.w3.org/1999/xlink" x="0px" y="0px"
	 viewBox="0 0 512 512" style="enable-background:new 0 0 512 512;" xml:space="preserve">
<path d="M461.1,463.2c-137.4,0-274.1,0-411.3,0c0-135.8,0-271.2,0-407c137.2,0,273.9,0,411.3,0C461.1,191.7,461.1,327,461.1,463.2z
	 M313.6,86.4c-2.2,11.2-1.6,340,0.5,346.2c65.3-20.2,126.4-87.4,125.1-175.4C437.8,164.2,370,101.6,313.6,86.4z M68.9,250.4
	c18.6,0,36.1,0.3,53.6-0.1c6.6-0.2,13.3-1.6,19.9-2.9c33.5-6.1,62.6-21.1,88.8-42.6c36.8-30.2,58.4-68.3,63.3-115.7
	c0.8-7.8-1.4-10.8-8.9-12.1c-28.2-4.5-56.1-3.1-83.5,4.7c-37.1,10.6-66.9,31.8-91.2,61.6C85.7,174.4,71.7,209.6,68.9,250.4z
	 M69.8,270.8c0.4,14.5,2.5,28,6.5,41.2c15.4,51,47.8,87.7,94.6,111.9c33.3,17.2,68.7,23.6,106,18c5.6-0.8,11-2.6,16.4-3.9
	c0.6-14.6-1.8-27.4-5.5-40.1c-13.8-46.8-44.5-79.8-85.6-103.7c-39.6-23.1-83.1-27.8-128-24.7C73.1,269.7,72,270.2,69.8,270.8z"/>
</svg>
