<?xml version="1.0" encoding="utf-8"?>
<!-- Generator: Adobe Illustrator 23.0.3, SVG Export Plug-In . SVG Version: 6.00 Build 0)  -->
<svg version="1.1" id="Layer_1" xmlns="http://www.w3.org/2000/svg" xmlns:xlink="http://www.w3.org/1999/xlink" x="0px" y="0px"
	 viewBox="0 0 512 512" style="enable-background:new 0 0 512 512;" xml:space="preserve">
<style type="text/css">
	.st0{stroke:#000000;stroke-miterlimit:10;}
	.st1{stroke:#000000;stroke-width:9;stroke-miterlimit:10;}
	.st2{stroke:#000000;stroke-width:3;stroke-miterlimit:10;}
	.st3{stroke:#000000;stroke-width:6;stroke-miterlimit:10;}
</style>
<g>
	<path class="st0" d="M247.4,499.6c-33.9,0.6-75.4-2.8-116.5-11.3c-17.6-3.7-30.9-12.6-39.8-28.4C52.2,390.5,23,317.3,9.3,238.5
		c-1.5-8.5-2.7-17-3.2-25.6c-0.9-14.5,3.9-27.4,14.1-37.7C80.7,114.5,148.3,63.9,227.1,28.8c18.9-8.4,36.7-9.1,55.8-0.7
		C350.5,57.7,410,99.5,464.3,149c8.6,7.9,17,16,25.3,24.2c13,13,18,28.7,15.5,47c-11.8,86-42.8,165.3-85.2,240.4
		c-7.9,14-20,22.4-35.5,25.4C341.8,494.3,298.8,499.2,247.4,499.6z M242,491.3c50.7-0.2,94.6-4.9,138.2-12.9
		c15.5-2.9,26.8-11.1,34.4-25c20.2-36.6,38-74.3,52-113.7c14.1-39.4,24.9-79.6,30.2-121.2c2-16-2.5-29.7-14.5-40.8
		c-8.8-8.2-17.2-16.7-26-24.7C403.1,105,345.1,64.4,279,35.6c-15.7-6.8-30.5-7-46.1-0.1C154.1,69.9,86.7,120.4,26.4,180.9
		c-10.1,10.2-13.6,23-11.6,37.3C26.5,304,57.4,383,99.8,457.9c6.4,11.3,16.1,18.2,28.8,21.1C168,488.1,208,491,242,491.3z"/>
	<path class="st0" d="M249.9,443.6c-27.4-0.1-54.6-2.4-81.6-7.1c-19.5-3.4-33.6-13.4-43-31c-28-52.3-49.3-106.9-59.1-165.6
		c-3.5-21,1.6-38.5,17.3-53.4c43.8-41.9,91.9-77.5,147.4-102.5c16.8-7.6,32.9-7.6,49.7,0c57.3,25.8,106.9,62.5,151.2,106.5
		c12.3,12.2,16.7,27.5,14.1,44.8c-9.3,61.8-31.5,119-61.6,173.4c-8.1,14.6-21,22.9-37.3,25.8C314.9,440.2,282.6,443.3,249.9,443.6z
		 M257.7,434.8c30.2-0.5,60-3.6,89.6-9.2c13.1-2.5,23.3-9.5,29.8-21.1c29.2-52.7,50.6-108.2,60.3-167.9c2.6-15.9-0.8-30-12.5-41.4
		C382,153.2,334.5,118,279.8,92.6c-16.3-7.5-31.4-7.6-47.7-0.1C177.2,118,129.3,153.3,86.3,195.6C75.8,206,71.8,218.8,74,233.5
		c9.2,61.5,31.3,118.3,61.4,172.3c6.9,12.3,17.8,18.9,31.5,21.6C196.9,433.3,227.2,435.5,257.7,434.8z"/>
	<path class="st1" d="M254.1,312.5c-8,0.1-15.9-0.8-23.8-2.3c-5-0.9-8.6-3.5-11.1-8c-8.2-14.9-14.2-30.6-17-47.5
		c-1-5.9,0.4-10.6,4.8-14.9c12.3-11.9,25.8-21.7,41.3-28.9c5.3-2.4,10.2-2.3,15.3,0.1c15.9,7.4,29.7,17.6,42,29.9
		c3.3,3.3,4.5,7.3,3.9,12c-2.5,17.9-8.9,34.5-17.7,50.2c-2.3,4.1-6,6.1-10.6,6.9C272.3,311.4,263.3,312.6,254.1,312.5z"/>
	<path class="st2" d="M251.7,385.7c-18.7-0.1-37.3-1.6-55.7-4.9c-13.3-2.3-22.9-9.1-29.4-21.2c-19.1-35.7-33.6-73-40.3-113.1
		c-2.4-14.4,1.1-26.3,11.8-36.5c29.9-28.6,62.8-52.9,100.7-70c11.4-5.2,22.5-5.2,33.9,0c39.1,17.6,73,42.7,103.3,72.8
		c8.4,8.3,11.4,18.8,9.6,30.6c-6.3,42.2-21.5,81.3-42.1,118.4c-5.5,10-14.3,15.6-25.5,17.6C296.1,383.4,274,385.5,251.7,385.7z
		 M257,379.8c20.6-0.3,41-2.5,61.2-6.3c9-1.7,15.9-6.5,20.3-14.4c19.9-36,34.6-73.9,41.2-114.7c1.8-10.8-0.5-20.5-8.5-28.3
		c-29.3-28.6-61.8-52.7-99.1-70c-11.1-5.2-21.5-5.2-32.6-0.1c-37.5,17.4-70.2,41.5-99.6,70.5c-7.2,7.1-9.9,15.8-8.4,25.9
		c6.3,42,21.4,80.8,42,117.7c4.7,8.4,12.2,12.9,21.5,14.8C215.5,378.7,236.1,380.2,257,379.8z"/>
	<path class="st3" d="M253.3,335.1c-11.1,0-22.2-1-33.1-2.9c-7.9-1.4-13.6-5.4-17.5-12.6c-11.4-21.2-20-43.4-24-67.2
		c-1.4-8.5,0.7-15.6,7-21.7c17.8-17,37.3-31.4,59.9-41.6c6.8-3.1,13.3-3.1,20.2,0c23.3,10.5,43.4,25.4,61.4,43.3
		c5,5,6.8,11.1,5.7,18.2c-3.8,25.1-12.8,48.3-25,70.4c-3.3,5.9-8.5,9.3-15.2,10.5C279.7,333.7,266.6,335,253.3,335.1z M256.5,331.6
		c12.2-0.2,24.4-1.5,36.4-3.7c5.3-1,9.5-3.9,12.1-8.6c11.8-21.4,20.6-43.9,24.5-68.2c1-6.4-0.3-12.2-5.1-16.8
		c-17.4-17-36.7-31.3-58.9-41.6c-6.6-3.1-12.8-3.1-19.4,0c-22.3,10.3-41.7,24.7-59.2,41.9c-4.3,4.2-5.9,9.4-5,15.4
		c3.7,25,12.7,48,24.9,70c2.8,5,7.2,7.7,12.8,8.8C231.8,331,244.1,331.8,256.5,331.6z"/>
</g>
</svg>
