<?xml version="1.0" encoding="utf-8"?>
<!-- Generator: Adobe Illustrator 23.0.3, SVG Export Plug-In . SVG Version: 6.00 Build 0)  -->
<svg version="1.1" id="Layer_1" xmlns="http://www.w3.org/2000/svg" xmlns:xlink="http://www.w3.org/1999/xlink" x="0px" y="0px"
	 viewBox="0 0 1060 765" style="enable-background:new 0 0 1060 765;" xml:space="preserve">
<title>PM10</title>
<path d="M980,478.9c12-2.8,19.5-14.9,16.7-26.9c-19.1-81.2-78.3-148.5-155.9-178.2C802.2,120,661.7,9.8,502,9.8
	c-160.6,0-301.3,111.1-339.2,266C67.6,314.7,5.3,407.3,5.3,510.2c0,136.6,106.2,247.1,242.3,252.8c1.1,0.2,2.2,0.2,3.3,0.2h38.8
	c12.4,0,22.4-10,22.4-22.4c0-12.4-10-22.4-22.4-22.4h-36.3c-0.6-0.1-1.2-0.1-1.8-0.1c-113-3.6-201.5-95.1-201.5-208.2
	c0.1-88.5,55.9-167.3,139.4-196.6c7.4-2.6,13-8.9,14.6-16.6C233,156.5,358.4,54.6,502.1,54.6c142.9,0,268.1,101.3,297.8,240.9
	c1.7,7.8,7.4,14.2,15,16.6c68.7,22.4,121.7,79.9,138.2,150.2C956,474.3,968,481.7,980,478.9z"/>
<path d="M455.9,539c-8.6-2.2-24.1-3.2-47.2-3.2h-38.6c-5.5,0-9.9,4.4-9.9,9.9v193.8c0,5.5,4.4,9.9,9.9,9.9h19.4
	c5.5,0,9.9-4.4,9.9-9.9v-80.2h4c25,0,41.9-1.1,51.6-3.4c14.1-3.4,25.4-10.2,33.7-20.3c8.2-10.1,12.5-23,12.5-38.2
	c0-15.2-4.3-28-12.8-38.2C480,549,468.6,542,455.9,539z M422.4,620.9l-23-0.3v-46.1h24.4c14.6,0,21.5,1.5,24.6,2.7
	c3.8,1.5,7.1,4.2,9.3,7.7c2.4,3.7,3.7,8,3.7,12.4c0.1,4.5-1.2,8.9-3.7,12.7c-2.3,3.6-5.8,6.4-9.8,7.9
	C444.4,619.3,437.2,620.9,422.4,620.9z"/>
<path d="M711.9,535.8h-3.1c-3.8,0-7.2,2.1-8.9,5.5l-69.2,141l-69.9-141.1c-1.7-3.3-5.1-5.5-8.8-5.5h-3.1c-4.9,0-9.1,3.6-9.8,8.5
	l-27.8,193.7c-0.8,5.4,3,10.4,8.4,11.2c0.5,0.1,0.9,0.1,1.4,0.1h18.7c4.9,0,9.1-3.6,9.8-8.5L564.3,633l55,110.9
	c1.7,3.4,5.1,5.5,8.8,5.5h5c3.8,0,7.2-2.1,8.8-5.5L696.2,634L711,740.8c0.7,4.9,4.8,8.5,9.8,8.5h19c5.4,0,9.9-4.4,9.9-9.8
	c0-0.5,0-1-0.1-1.4l-27.9-193.8C720.9,539.4,716.8,535.8,711.9,535.8z"/>
<path d="M842.2,535.8h-38.1c-3.4,0-6.6,1.8-8.4,4.7l-11.6,19c-2.8,4.7-1.4,10.7,3.3,13.6c1.5,0.9,3.3,1.4,5.1,1.4h20.6v164.9
	c0,5.5,4.4,9.9,9.9,9.9h19.2c5.5,0,9.9-4.4,9.9-9.9V545.7C852.1,540.3,847.7,535.9,842.2,535.8z"/>
<path d="M1044.8,580.6c-6.6-16.2-15.9-28.6-27.6-36.9c-11.6-8.3-25.5-12.8-39.8-12.7c-14.1-0.1-27.9,4.3-39.4,12.7
	c-11.5,8.3-20.5,20.5-26.7,36.2c-6,15.3-8.9,35.8-8.9,62.9c0,26.9,3,47.4,9.1,62.8c6.3,15.8,15.2,28,26.7,36.2
	c11.4,8.2,25.1,12.6,39.2,12.5c14.4,0.1,28.4-4.4,40-12.8c11.8-8.4,21.1-20.8,27.6-36.9c6.4-15.7,9.5-35.9,9.5-61.8
	C1054.4,617.1,1051.2,596.2,1044.8,580.6z M996.2,710.5c-11.5,8.7-24.5,8.9-36.4-0.2c-6-4.6-10.7-11.6-14-20.9
	c-3.5-10.1-5.3-25.7-5.3-46.4c0-20.7,1.8-36.4,5.4-46.5c3.3-9.3,8-16.3,13.9-20.9c5.9-4.5,11.8-6.6,18.3-6.6
	c6.3,0,12.2,2.2,18.1,6.6c5.9,4.5,10.8,12.2,14.5,22.7c3.9,11.3,5.9,26.3,5.9,44.7c0,18.3-2.2,33.9-6.7,46.7
	C1006.6,699,1002,706,996.2,710.5L996.2,710.5z"/>
<path d="M503.2,356.6c12.5,0,22.6-10.1,22.6-22.6s-10.1-22.6-22.6-22.6c-12.5,0-22.6,10.1-22.6,22.6
	C480.6,346.4,490.7,356.5,503.2,356.6z"/>
<path d="M525.8,460.5c0-12.5-10.1-22.6-22.6-22.6s-22.6,10.1-22.6,22.6s10.1,22.6,22.6,22.6C515.7,483.1,525.8,473,525.8,460.5z"/>
<path d="M503.2,230c12.5,0,22.6-10.1,22.6-22.6s-10.1-22.6-22.6-22.6c-12.5,0-22.6,10.1-22.6,22.6
	C480.6,219.8,490.7,229.9,503.2,230z"/>
<path d="M405,419.9c12.5,0,22.6-10.1,22.6-22.6s-10.1-22.6-22.6-22.6c-12.5,0-22.6,10.1-22.6,22.6
	C382.4,409.7,392.5,419.8,405,419.9z"/>
<path d="M405,293.3c12.5,0,22.6-10.1,22.6-22.6S417.5,248,405,248c-12.5,0-22.6,10.1-22.6,22.6C382.4,283.1,392.5,293.2,405,293.3z"
	/>
<path d="M306.7,311.3c-12.5,0-22.6,10.1-22.6,22.6s10.1,22.6,22.6,22.6s22.6-10.1,22.6-22.6C329.4,321.4,319.2,311.3,306.7,311.3z"
	/>
<path d="M601.4,419.9c12.5,0,22.6-10.1,22.6-22.6s-10.1-22.6-22.6-22.6c-12.5,0-22.6,10.1-22.6,22.6
	C578.8,409.7,588.9,419.8,601.4,419.9z"/>
<path d="M601.4,293.3c12.5,0,22.6-10.1,22.6-22.6S613.9,248,601.4,248c-12.5,0-22.6,10.1-22.6,22.6
	C578.8,283.1,588.9,293.2,601.4,293.3z"/>
<path d="M722.3,333.9c0-12.5-10.1-22.6-22.6-22.6S677,321.4,677,333.9s10.1,22.6,22.6,22.6C712.2,356.5,722.3,346.4,722.3,333.9z"/>
</svg>
