<?xml version="1.0" encoding="utf-8"?>
<!-- Generator: Adobe Illustrator 23.0.3, SVG Export Plug-In . SVG Version: 6.00 Build 0)  -->
<svg version="1.1" id="Layer_4" xmlns="http://www.w3.org/2000/svg" xmlns:xlink="http://www.w3.org/1999/xlink" x="0px" y="0px"
	 viewBox="0 0 1012 757" style="enable-background:new 0 0 1012 757;" xml:space="preserve">
<title>VOC</title>
<path d="M292.4,710.4h-36.3c-0.6-0.1-1.2-0.1-1.8-0.1c-113-3.6-201.5-95.1-201.5-208.2c0.1-88.5,55.9-167.3,139.4-196.6
	c7.4-2.6,12.9-8.9,14.5-16.6C235.8,148.5,361.2,46.6,504.8,46.6c142.9,0,268.2,101.3,297.8,240.9c1.7,7.8,7.4,14.2,15,16.6
	c68.7,22.4,121.7,79.9,138.3,150.2c2.8,12,14.9,19.5,26.9,16.7c12-2.8,19.5-14.9,16.7-26.9l0,0c-19.1-81.2-78.3-148.5-155.9-178.2
	C805,112,664.5,1.8,504.8,1.8c-160.6,0-301.4,111.1-339.2,266C70.4,306.7,8.1,399.3,8,502.2C8,638.7,114.2,749.3,250.3,755
	c1.1,0.2,2.2,0.2,3.3,0.2h38.8c12.4,0,22.4-10,22.4-22.4C314.8,720.5,304.7,710.4,292.4,710.4L292.4,710.4z"/>
<path d="M538.8,529.2h-21.1c-3.9,0-7.4,2.3-9,5.9l-56.2,128.8l-55.2-128.7c-1.5-3.6-5.1-6-9.1-6h-21.1c-5.5,0-9.9,4.4-9.9,9.9
	c0,1.3,0.3,2.7,0.8,3.9l83.1,193.8c1.5,3.6,5.1,6,9.1,6h4.2c3.9,0,7.4-2.3,9-5.9L547.8,543c2.2-5-0.1-10.8-5.1-13
	C541.5,529.5,540.1,529.2,538.8,529.2L538.8,529.2z"/>
<path d="M663.6,524.3c-39.7-0.1-76.4,21.2-95.9,55.8c-9.8,17.3-14.9,36.8-14.8,56.7c0,30.5,11,56.9,32.6,78.4s48.4,32.4,79.7,32.4
	c31,0,57.6-10.9,79.2-32.5s32.5-48.2,32.5-79.2c0-31.2-11-57.9-32.6-79.3S695.5,524.3,663.6,524.3z M701.3,699.3
	c-11.2,6.4-23.9,9.8-36.9,9.6c-20,0-36.6-6.8-50.8-20.9c-14.2-14.1-21-30.8-21-51.3c-0.2-13.1,3.1-26,9.5-37.4
	c12.9-22.3,36.5-36.1,62.3-36.4c25.9,0.2,49.9,13.9,63.2,36.1c6.4,11.2,9.6,23.9,9.4,36.8c0.2,13.1-3.1,25.9-9.5,37.3
	C721.4,684.2,712.3,693.2,701.3,699.3L701.3,699.3z"/>
<path d="M976.9,679.7c-4.2-3.2-10.1-2.5-13.4,1.4c-16.4,19.1-36.3,28.4-60.6,28.4c-22.2,0-40-6.8-54.4-20.9
	c-14.4-14.1-21.3-31-21.3-52.1c0-13.8,3.2-26.3,9.5-37.3c6.4-11,15.7-20.1,26.9-26.2c11.6-6.5,24.8-9.9,38.1-9.9
	c12-0.1,23.8,2.4,34.7,7.5c10.6,5.1,19.7,12.7,26.8,22.1c3.3,4.3,9.5,5.1,13.8,1.8c0,0,0,0,0,0l15.3-11.7c4.2-3.3,5.1-9.3,2-13.6
	c-10.2-14.2-23.8-25.6-39.5-33.2c-15.9-7.8-33.8-11.8-53.3-11.8c-32.5,0-59.9,10.7-81.6,31.8S787,603.8,787,634.8
	c0,29.3,9.1,54.7,27,75.5c21.5,24.7,51,37.3,87.7,37.3c19.2,0,36.9-3.7,52.6-11c15.6-7.2,29.2-17.9,39.8-31.4
	c3.4-4.3,2.6-10.5-1.6-13.9c-0.1,0-0.1-0.1-0.2-0.1L976.9,679.7z"/>
<path d="M506,303.3c-12.5,0-22.6,10.1-22.6,22.6s10.1,22.6,22.6,22.6c12.5,0,22.6-10.1,22.6-22.6C528.6,313.4,518.5,303.3,506,303.3
	z"/>
<path d="M506,429.9c-12.5,0-22.6,10.1-22.6,22.6s10.1,22.6,22.6,22.6c12.5,0,22.6-10.1,22.6-22.6C528.6,440,518.5,429.9,506,429.9z"
	/>
<path d="M506,176.7c-12.5,0-22.6,10.1-22.6,22.6c0,12.5,10.1,22.6,22.6,22.6c12.5,0,22.6-10.1,22.6-22.6
	C528.6,186.8,518.5,176.7,506,176.7z"/>
<path d="M407.7,366.6c-12.5,0-22.6,10.1-22.6,22.6s10.1,22.6,22.6,22.6c12.5,0,22.6-10.1,22.6-22.6
	C430.4,376.7,420.2,366.6,407.7,366.6z"/>
<path d="M407.7,240c-12.5,0-22.6,10.1-22.6,22.6c0,12.5,10.1,22.6,22.6,22.6c12.5,0,22.6-10.1,22.6-22.6
	C430.4,250.1,420.2,240,407.7,240z"/>
<path d="M309.5,303.3c-12.5,0-22.6,10.1-22.6,22.6s10.1,22.6,22.6,22.6s22.6-10.1,22.6-22.6C332.1,313.4,322,303.3,309.5,303.3z"/>
<path d="M604.2,366.6c-12.5,0-22.6,10.1-22.6,22.6s10.1,22.6,22.6,22.6c12.5,0,22.6-10.1,22.6-22.6
	C626.8,376.7,616.7,366.6,604.2,366.6z"/>
<path d="M604.2,240c-12.5,0-22.6,10.1-22.6,22.6c0,12.5,10.1,22.6,22.6,22.6c12.5,0,22.6-10.1,22.6-22.6
	C626.8,250.1,616.7,240,604.2,240z"/>
<path d="M702.4,303.3c-12.5,0-22.6,10.1-22.6,22.6s10.1,22.6,22.6,22.6c12.5,0,22.6-10.1,22.6-22.6
	C725,313.4,714.9,303.3,702.4,303.3z"/>
</svg>
