<?xml version="1.0" encoding="utf-8"?>
<!-- Generator: Adobe Illustrator 23.0.3, SVG Export Plug-In . SVG Version: 6.00 Build 0)  -->
<svg version="1.1" id="Layer_3" xmlns="http://www.w3.org/2000/svg" xmlns:xlink="http://www.w3.org/1999/xlink" x="0px" y="0px"
	 viewBox="0 0 1008 757" style="enable-background:new 0 0 1008 757;" xml:space="preserve">
<title>PM1</title>
<path d="M1000.7,445.3c-19.1-81.2-78.3-148.4-155.9-178.2C806.2,113.3,665.8,3,506.1,3C345.4,3,204.7,114.2,166.8,269
	C71.6,308,9.4,400.6,9.3,503.4c0,136.6,106.2,247.1,242.3,252.8c1.1,0.2,2.2,0.2,3.3,0.2h38.8c12.4,0,22.4-10,22.4-22.4
	s-10-22.4-22.4-22.4h-36.4c-0.6-0.1-1.2-0.1-1.8-0.1c-113-3.6-201.5-95-201.5-208.1C54.1,415,110,336.2,193.4,306.9
	c7.4-2.6,13-8.9,14.6-16.6C237,149.8,362.4,47.9,506.1,47.9c142.9,0,268.1,101.3,297.8,240.9c1.7,7.8,7.4,14.2,15,16.6
	c68.7,22.4,121.7,79.9,138.3,150.2c2.8,12,14.9,19.5,26.9,16.7C996.1,469.4,1003.6,457.3,1000.7,445.3L1000.7,445.3z"/>
<path d="M518.2,533.7c-8.6-2.2-24.1-3.2-47.2-3.2h-38.6c-5.5,0-9.9,4.4-9.9,9.9v193.8c0,5.5,4.4,9.9,9.9,9.9h19.4
	c5.5,0,9.9-4.4,9.9-9.9v-80.3h4c25,0,41.9-1.1,51.6-3.4c14.1-3.4,25.4-10.2,33.7-20.3c8.2-10.1,12.5-23,12.5-38.2
	c0-15.2-4.3-28-12.8-38.2C542.3,543.7,530.9,536.6,518.2,533.7z M484.7,615.6l-23-0.3v-46.1H486c14.6,0,21.5,1.5,24.6,2.7
	c3.8,1.5,7.1,4.2,9.3,7.7c2.4,3.7,3.7,8,3.7,12.4c0.1,4.5-1.2,8.9-3.7,12.7c-2.3,3.6-5.8,6.4-9.8,7.9
	C506.7,614,499.5,615.6,484.7,615.6L484.7,615.6z"/>
<path d="M774.1,530.5H771c-3.8,0-7.2,2.1-8.9,5.5l-69.2,141l-69.8-141c-1.7-3.4-5.1-5.5-8.8-5.5h-3.1c-4.9,0-9.1,3.6-9.8,8.5
	l-27.7,193.8c-0.8,5.4,3,10.4,8.4,11.2c0.5,0.1,0.9,0.1,1.4,0.1h18.7c4.9,0,9.1-3.6,9.8-8.5l14.7-107.8l55,110.9
	c1.7,3.4,5.1,5.5,8.8,5.5h5c3.8,0,7.2-2.1,8.8-5.5l54.3-109.8l14.8,106.8c0.7,4.9,4.8,8.5,9.8,8.5h19c5.4,0,9.9-4.4,9.9-9.8
	c0-0.5,0-1-0.1-1.4l-27.9-193.8C783.2,534.1,779,530.5,774.1,530.5z"/>
<path d="M904.5,530.5h-38.1c-3.4,0-6.6,1.8-8.4,4.7l-11.6,19c-2.8,4.7-1.4,10.7,3.3,13.6c1.5,0.9,3.3,1.4,5.1,1.4h20.6v164.9
	c0,5.5,4.4,9.9,9.9,9.9h19.2c5.5,0,9.9-4.4,9.9-9.9V540.3C914.4,534.9,910,530.5,904.5,530.5z"/>
<path d="M507.2,349.9c12.5,0,22.6-10.1,22.6-22.6s-10.1-22.6-22.6-22.6c-12.5,0-22.6,10.1-22.6,22.6
	C484.6,339.7,494.7,349.8,507.2,349.9z"/>
<path d="M507.2,476.4c12.5,0,22.6-10.1,22.6-22.6c0-12.5-10.1-22.6-22.6-22.6c-12.5,0-22.6,10.1-22.6,22.6c0,0,0,0,0,0
	C484.6,466.3,494.7,476.4,507.2,476.4z"/>
<path d="M507.2,223.2c12.5,0,22.6-10.1,22.6-22.6S519.7,178,507.2,178c-12.5,0-22.6,10.1-22.6,22.6
	C484.6,213.1,494.7,223.2,507.2,223.2z"/>
<path d="M431.6,390.5c0-12.5-10.1-22.6-22.6-22.6c-12.5,0-22.6,10.1-22.6,22.6s10.1,22.6,22.6,22.6c0,0,0,0,0,0
	C421.5,413.1,431.6,403,431.6,390.5z"/>
<path d="M409,286.5c12.5,0,22.6-10.1,22.6-22.6s-10.1-22.6-22.6-22.6c-12.5,0-22.6,10.1-22.6,22.6
	C386.4,276.4,396.5,286.5,409,286.5z"/>
<path d="M310.7,304.6c-12.5,0-22.6,10.1-22.6,22.6s10.1,22.6,22.6,22.6s22.6-10.1,22.6-22.6C333.4,314.7,323.2,304.6,310.7,304.6z"
	/>
<path d="M605.4,413.1c12.5,0,22.6-10.1,22.6-22.6s-10.1-22.6-22.6-22.6c-12.5,0-22.6,10.1-22.6,22.6
	C582.8,403,592.9,413.1,605.4,413.1z"/>
<path d="M605.4,286.5c12.5,0,22.6-10.1,22.6-22.6s-10.1-22.6-22.6-22.6c-12.5,0-22.6,10.1-22.6,22.6
	C582.8,276.4,592.9,286.5,605.4,286.5z"/>
<path d="M726.3,327.2c0-12.5-10.1-22.6-22.6-22.6c-12.5,0-22.6,10.1-22.6,22.6c0,12.5,10.1,22.6,22.6,22.6
	C716.2,349.8,726.3,339.7,726.3,327.2z"/>
</svg>
